<svg width="32" height="32" viewBox="0 0 32 32" fill="none" xmlns="http://www.w3.org/2000/svg">
<rect width="31.9999" height="32" rx="15.9999" fill="#F94D53"/>
<path d="M11.8584 6.06994C10.7944 6.12014 10.0678 6.28994 9.43263 6.53954C8.77523 6.79574 8.21802 7.13954 7.66362 7.69594C7.10922 8.25235 6.76782 8.80995 6.51342 9.46835C6.26722 10.105 6.10042 10.8322 6.05342 11.8968C6.00642 12.9614 5.99602 13.3036 6.00122 16.0192C6.00642 18.7348 6.01842 19.0752 6.07002 20.142C6.12082 21.2058 6.29002 21.9322 6.53962 22.5676C6.79622 23.225 7.13962 23.782 7.69622 24.3366C8.25282 24.8912 8.81003 25.2318 9.47003 25.4866C10.106 25.7324 10.8334 25.9 11.8978 25.9466C12.9622 25.9932 13.3048 26.004 16.0197 25.9988C18.7345 25.9936 19.0763 25.9816 20.1429 25.931C21.2095 25.8804 21.9321 25.71 22.5677 25.4616C23.2251 25.2044 23.7825 24.8616 24.3367 24.3048C24.8909 23.748 25.2321 23.19 25.4863 22.5312C25.7327 21.8952 25.9001 21.1678 25.9463 20.1042C25.9929 19.0368 26.0039 18.696 25.9987 15.9808C25.9935 13.2656 25.9813 12.9252 25.9307 11.8588C25.8801 10.7924 25.7107 10.0682 25.4613 9.43235C25.2043 8.77495 24.8613 8.21835 24.3049 7.66334C23.7485 7.10834 23.1901 6.76734 22.5315 6.51374C21.8951 6.26754 21.1681 6.09974 20.1037 6.05374C19.0393 6.00774 18.6967 5.99594 15.9809 6.00114C13.265 6.00634 12.925 6.01794 11.8584 6.06994ZM11.9752 24.1476C11.0002 24.1052 10.4708 23.9432 10.118 23.8076C9.65083 23.6276 9.31803 23.41 8.96643 23.0618C8.61483 22.7136 8.39882 22.3796 8.21642 21.9134C8.07942 21.5606 7.91442 21.0318 7.86882 20.0568C7.81922 19.003 7.80882 18.6866 7.80302 16.0168C7.79722 13.347 7.80742 13.031 7.85362 11.9768C7.89522 11.0026 8.05822 10.4726 8.19362 10.12C8.37362 9.65215 8.59043 9.31995 8.93943 8.96855C9.28843 8.61715 9.62143 8.40075 10.088 8.21835C10.4404 8.08074 10.9692 7.91714 11.9438 7.87074C12.9984 7.82074 13.3144 7.81074 15.9839 7.80494C18.6533 7.79914 18.9701 7.80914 20.0251 7.85554C20.9993 7.89794 21.5295 8.05934 21.8817 8.19554C22.3491 8.37555 22.6817 8.59175 23.0331 8.94135C23.3845 9.29095 23.6011 9.62275 23.7835 10.0904C23.9213 10.4418 24.0849 10.9704 24.1309 11.9456C24.1811 13.0002 24.1925 13.3164 24.1973 15.9856C24.2021 18.6548 24.1927 18.9718 24.1465 20.0256C24.1039 21.0006 23.9423 21.5302 23.8065 21.8834C23.6265 22.3504 23.4095 22.6834 23.0603 23.0346C22.7111 23.3858 22.3785 23.6022 21.9117 23.7846C21.5597 23.922 21.0303 24.086 20.0565 24.1324C19.0019 24.182 18.6859 24.1924 16.0155 24.1982C13.345 24.204 13.0298 24.1932 11.9752 24.1476ZM20.1275 10.6554C20.1279 10.8927 20.1986 11.1246 20.3308 11.3217C20.463 11.5189 20.6507 11.6724 20.8702 11.7628C21.0896 11.8533 21.331 11.8766 21.5637 11.8299C21.7964 11.7832 22.01 11.6685 22.1776 11.5003C22.3451 11.3322 22.459 11.1181 22.5049 10.8853C22.5507 10.6524 22.5265 10.4111 22.4352 10.192C22.344 9.97289 22.1898 9.78576 21.9922 9.65428C21.7946 9.5228 21.5624 9.45288 21.3251 9.45335C21.0069 9.45399 20.702 9.58097 20.4774 9.80638C20.2528 10.0318 20.1269 10.3372 20.1275 10.6554ZM10.8654 16.01C10.871 18.846 13.1742 21.1398 16.0097 21.1344C18.8451 21.129 21.1405 18.826 21.1351 15.99C21.1297 13.154 18.8259 10.8596 15.9901 10.8652C13.1542 10.8708 10.86 13.1744 10.8654 16.01ZM12.6666 16.0064C12.6653 15.3471 12.8596 14.7022 13.2248 14.1533C13.59 13.6044 14.1097 13.1761 14.7183 12.9226C15.3269 12.6691 15.997 12.6018 16.6439 12.7291C17.2908 12.8565 17.8853 13.1728 18.3524 13.638C18.8196 14.1033 19.1382 14.6966 19.2681 15.343C19.398 15.9893 19.3333 16.6597 19.0822 17.2693C18.8311 17.8789 18.4049 18.4004 17.8575 18.7677C17.31 19.1351 16.6659 19.3319 16.0067 19.3332C15.5689 19.3341 15.1352 19.2488 14.7304 19.0821C14.3257 18.9154 13.9577 18.6706 13.6475 18.3616C13.3374 18.0527 13.0911 17.6857 12.9228 17.2816C12.7545 16.8775 12.6675 16.4441 12.6666 16.0064Z" fill="white"/>
</svg>
