<svg width="32" height="32" viewBox="0 0 32 32" fill="none" xmlns="http://www.w3.org/2000/svg">
<rect width="32" height="32" rx="16" fill="#F94D53"/>
<path d="M22.3369 22.3372H19.6698V18.1604C19.6698 17.1644 19.652 15.8822 18.2827 15.8822C16.8936 15.8822 16.6811 16.9674 16.6811 18.0879V22.3369H14.014V13.7477H16.5744V14.9215H16.6102C16.8665 14.4834 17.2367 14.1229 17.6816 13.8786C18.1264 13.6343 18.6292 13.5152 19.1364 13.534C21.8396 13.534 22.338 15.3121 22.338 17.6253L22.3369 22.3372ZM11.0047 12.5736C10.6986 12.5736 10.3994 12.4829 10.1448 12.3129C9.89025 12.1429 9.69185 11.9012 9.57465 11.6184C9.45746 11.3356 9.42675 11.0244 9.48641 10.7241C9.54608 10.4239 9.69344 10.1481 9.90985 9.93157C10.1263 9.71507 10.402 9.56761 10.7022 9.50784C11.0024 9.44806 11.3136 9.47866 11.5965 9.59575C11.8793 9.71285 12.1211 9.91119 12.2912 10.1657C12.4613 10.4202 12.5521 10.7194 12.5522 11.0255C12.5522 11.2288 12.5122 11.4301 12.4344 11.6179C12.3567 11.8057 12.2427 11.9763 12.099 12.1201C11.9554 12.2638 11.7847 12.3778 11.597 12.4557C11.4092 12.5335 11.208 12.5735 11.0047 12.5736ZM12.3382 22.3372H9.66842V13.7477H12.3382V22.3372ZM23.6665 7.00123H8.32824C7.98011 6.9973 7.64464 7.13175 7.39558 7.37503C7.14652 7.61832 7.00425 7.95053 7 8.29867V23.7011C7.0041 24.0494 7.14629 24.3818 7.39534 24.6254C7.64439 24.8689 7.97994 25.0036 8.32824 24.9999H23.6665C24.0155 25.0043 24.352 24.8699 24.602 24.6264C24.852 24.3829 24.9952 24.0501 25 23.7011V8.29756C24.995 7.94873 24.8518 7.61614 24.6017 7.37286C24.3517 7.12958 24.0153 6.99551 23.6665 7.00011" fill="white"/>
</svg>
