<svg width="156" height="63" viewBox="0 0 156 63" fill="none" xmlns="http://www.w3.org/2000/svg">
<path d="M24.6 9.70001V31.2L19.7 28.4C11 23.4 5.59999 14.1 5.59999 4H2V28.6C2 36.6 6.59999 44 13.9 47.5L24.7 52.7V31.2L29.6 34C38.3 39 43.7 48.3 43.7 58.4H47.3V33.8C47.3 25.8 42.7 18.4 35.4 14.9L24.6 9.70001Z" fill="#201B21"/>
<path d="M63.9561 15.4734C63.9561 15.1348 63.516 14.9656 62.6357 14.9656C62.2607 14.9656 61.8389 15.0854 61.3701 15.325C60.9066 15.5593 60.4743 15.8875 60.0732 16.3093C59.6722 16.7312 59.3128 17.2078 58.9951 17.739C58.3024 18.8848 57.9561 20.0619 57.9561 21.2703C57.9561 22.4734 58.1956 23.4109 58.6748 24.0828C59.1592 24.7546 59.891 25.0906 60.8701 25.0906C60.9535 25.0906 61.016 25.088 61.0576 25.0828C61.266 24.5515 61.4535 23.9994 61.6201 23.4265C61.792 22.8536 61.8779 22.5046 61.8779 22.3796C61.8779 22.2494 61.805 22.1427 61.6592 22.0593C61.5133 21.976 61.3519 21.9187 61.1748 21.8875C60.7061 21.8041 60.4717 21.6505 60.4717 21.4265C60.4717 21.1348 60.8467 20.9109 61.5967 20.7546C62.3467 20.5984 63.2399 20.5203 64.2764 20.5203C65.318 20.5203 66.0055 20.5697 66.3389 20.6687C66.6722 20.7625 66.8389 20.9187 66.8389 21.1375C66.8389 21.2885 66.7477 21.5437 66.5654 21.9031C66.3831 22.2625 66.0837 23.1322 65.667 24.5125C65.2503 25.8927 64.9482 26.726 64.7607 27.0125C64.4535 27.4864 63.9847 27.8406 63.3545 28.075C62.7295 28.3145 61.9951 28.4343 61.1514 28.4343C59.6045 28.4343 58.8311 28.2703 58.8311 27.9421C58.8311 27.7234 59.0264 27.502 59.417 27.2781C59.8649 27.0177 60.2008 26.7286 60.4248 26.4109C60.5186 26.2703 60.6097 26.1088 60.6982 25.9265C59.9847 26.1088 59.1566 26.2 58.2139 26.2C57.2712 26.2 56.4456 26.0984 55.7373 25.8953C55.0342 25.6869 54.4743 25.3901 54.0576 25.0046C53.2503 24.2598 52.8467 23.2494 52.8467 21.9734C52.8467 21.2234 52.9951 20.489 53.292 19.7703C53.5889 19.0515 53.9899 18.4005 54.4951 17.8171C55.0003 17.2338 55.5889 16.6947 56.2607 16.2C56.9326 15.7052 57.641 15.2885 58.3857 14.95C59.9639 14.2416 61.5238 13.8875 63.0654 13.8875C64.6071 13.8875 65.7555 14.1192 66.5107 14.5828C67.2712 15.0463 67.6514 15.6947 67.6514 16.5281C67.6514 17.0125 67.4352 17.4656 67.0029 17.8875C66.5133 18.3666 65.7451 18.6062 64.6982 18.6062C64.3441 18.6062 64.042 18.5567 63.792 18.4578C63.318 18.2703 63.0811 18.002 63.0811 17.6531C63.0811 17.575 63.2269 17.239 63.5186 16.6453C63.8102 16.0515 63.9561 15.6609 63.9561 15.4734ZM73.9248 24.5281C74.904 24.5281 75.7217 23.7781 76.3779 22.2781C76.68 21.5906 76.8311 21.0333 76.8311 20.6062C76.8311 20.1791 76.7581 19.8848 76.6123 19.7234C76.4717 19.5619 76.1904 19.4812 75.7686 19.4812C75.3519 19.4812 74.8988 19.6765 74.4092 20.0671C73.9248 20.4526 73.5342 20.9395 73.2373 21.5281C72.9404 22.1166 72.792 22.6479 72.792 23.1218C72.792 23.5906 72.8962 23.9421 73.1045 24.1765C73.3128 24.4109 73.5863 24.5281 73.9248 24.5281ZM77.9873 17.9109L81.5654 18.075C81.7008 18.075 81.8024 18.1166 81.8701 18.2C81.9378 18.2781 81.9717 18.3666 81.9717 18.4656C81.9717 18.8458 81.8128 19.4526 81.4951 20.2859C81.1826 21.114 80.8675 21.9369 80.5498 22.7546C80.2373 23.5671 80.0811 24.1062 80.0811 24.3718C80.0811 24.6322 80.1201 24.7989 80.1982 24.8718C80.2816 24.9447 80.4378 24.9812 80.667 24.9812C80.8962 24.9812 81.3128 24.8718 81.917 24.6531C82.5264 24.4291 82.9378 24.2598 83.1514 24.1453C83.3701 24.0307 83.5368 23.9734 83.6514 23.9734C83.8545 23.9734 83.9561 24.0645 83.9561 24.2468C83.9561 24.6322 83.1748 25.1375 81.6123 25.7625C81.0863 25.976 80.4508 26.1531 79.7061 26.2937C78.9665 26.4395 78.2139 26.5125 77.4482 26.5125C76.1722 26.5125 75.404 26.1062 75.1436 25.2937C74.3311 26.1062 73.2373 26.5125 71.8623 26.5125C70.9196 26.5125 70.1227 26.2859 69.4717 25.8328C68.7633 25.338 68.4092 24.5593 68.4092 23.4968C68.4092 22.377 68.7399 21.3458 69.4014 20.4031C70.1253 19.3562 71.0941 18.6348 72.3076 18.239C72.9795 18.0203 73.7008 17.9109 74.4717 17.9109C75.654 17.9109 76.5732 18.2026 77.2295 18.7859C77.2347 18.7546 77.2373 18.7052 77.2373 18.6375L77.2295 18.3015C77.2295 18.0411 77.4821 17.9109 77.9873 17.9109ZM90.2139 18.2468L92.2686 17.9812C92.654 17.9812 92.8467 18.1322 92.8467 18.4343C92.8467 18.7364 92.6644 18.9265 92.2998 19.0046C91.9352 19.0776 91.1123 19.1765 89.8311 19.3015C89.654 19.7651 89.3883 20.4083 89.0342 21.2312C88.3102 22.9187 87.9482 23.9317 87.9482 24.2703C87.9482 24.6401 88.1774 24.825 88.6357 24.825C90.1149 24.825 91.443 24.5776 92.6201 24.0828C92.792 24.0098 92.9274 23.9734 93.0264 23.9734C93.2191 23.9734 93.3154 24.0593 93.3154 24.2312C93.3154 24.4031 93.1904 24.5723 92.9404 24.739C92.1748 25.2442 91.0212 25.6661 89.4795 26.0046C87.9378 26.3432 86.516 26.5125 85.2139 26.5125C84.4743 26.5125 83.9092 26.3979 83.5186 26.1687C83.1279 25.9343 82.9326 25.614 82.9326 25.2078C82.9326 24.7963 83.2035 24.0281 83.7451 22.9031C84.3545 21.6427 84.792 20.5359 85.0576 19.5828C84.7347 19.5984 84.5107 19.6062 84.3857 19.6062C84.0785 19.6062 83.9248 19.4812 83.9248 19.2312C83.9248 19.0489 83.9743 18.9265 84.0732 18.864C84.1722 18.8015 84.2738 18.7572 84.3779 18.7312C84.4873 18.7052 84.5785 18.6895 84.6514 18.6843C84.7295 18.6739 84.8363 18.6635 84.9717 18.6531C85.1071 18.6427 85.2061 18.6348 85.2686 18.6296C85.3363 18.2338 85.3701 17.8614 85.3701 17.5125L85.3623 17.2156C85.3623 16.9812 85.6592 16.8223 86.2529 16.739C86.4508 16.713 87.0732 16.5828 88.1201 16.3484C89.167 16.114 89.8076 15.9968 90.042 15.9968C90.417 15.9968 90.6045 16.127 90.6045 16.3875C90.6045 16.8354 90.4743 17.4552 90.2139 18.2468ZM105.058 23.9734C105.24 23.9734 105.331 24.0593 105.331 24.2312C105.331 24.3979 105.206 24.5541 104.956 24.7C104.711 24.8406 104.407 24.9942 104.042 25.1609C103.677 25.3223 103.175 25.5151 102.534 25.739C101.06 26.2546 99.3962 26.5125 97.542 26.5125C94.0212 26.5125 92.2607 25.4291 92.2607 23.2625C92.2607 22.2052 92.5941 21.2677 93.2607 20.45C93.9326 19.627 94.8311 18.9994 95.9561 18.5671C97.0811 18.1296 98.3076 17.9109 99.6357 17.9109C100.964 17.9109 101.935 18.1166 102.55 18.5281C103.17 18.9395 103.479 19.5046 103.479 20.2234C103.479 20.963 103.183 21.5671 102.589 22.0359C102 22.5046 101.216 22.8536 100.237 23.0828C99.2529 23.3119 98.1253 23.4734 96.8545 23.5671C96.9378 24.3744 97.516 24.877 98.5889 25.075C98.8649 25.1218 99.1566 25.1453 99.4639 25.1453C100.683 25.1453 102.44 24.7781 104.737 24.0437C104.878 23.9968 104.985 23.9734 105.058 23.9734ZM96.8623 22.7078C97.7686 22.4578 98.4847 22.075 99.0107 21.5593C99.5368 21.0437 99.7998 20.4213 99.7998 19.6921C99.7998 19.4994 99.7373 19.3458 99.6123 19.2312C99.4873 19.1166 99.2972 19.0593 99.042 19.0593C98.792 19.0593 98.529 19.1687 98.2529 19.3875C97.9821 19.6062 97.7529 19.8927 97.5654 20.2468C97.1696 20.9812 96.9352 21.8015 96.8623 22.7078ZM106.581 18.1609L110.714 18.075C110.917 18.075 111.019 18.1765 111.019 18.3796C111.019 18.4994 110.956 18.6375 110.831 18.7937C110.383 19.3562 110.006 19.9942 109.698 20.7078C109.396 21.4213 109.245 22.1479 109.245 22.8875C109.245 23.6635 109.368 24.1505 109.612 24.3484C109.716 24.4317 109.849 24.4734 110.011 24.4734C110.349 24.4734 110.667 24.3406 110.964 24.075C111.266 23.8093 111.521 23.4734 111.729 23.0671C111.943 22.6609 112.136 22.1921 112.308 21.6609C112.594 20.7442 112.802 19.752 112.933 18.6843C112.943 18.5593 112.987 18.4421 113.065 18.3328C113.149 18.2182 113.279 18.1609 113.456 18.1609L117.589 18.075C117.792 18.075 117.894 18.1609 117.894 18.3328C117.894 18.4682 117.831 18.6218 117.706 18.7937C116.649 20.2625 116.12 21.6817 116.12 23.0515C116.12 23.9473 116.383 24.3953 116.909 24.3953C117.31 24.3953 117.683 24.226 118.026 23.8875C118.37 23.5489 118.654 23.1062 118.878 22.5593C119.357 21.3979 119.597 20.1062 119.597 18.6843C119.597 18.3822 119.771 18.2078 120.12 18.1609C120.235 18.1453 120.711 18.127 121.55 18.1062C122.394 18.0854 122.935 18.075 123.175 18.075C123.414 18.075 123.534 18.1843 123.534 18.4031C123.534 19.1843 123.318 19.9708 122.886 20.7625C123.125 20.8093 123.368 20.8328 123.612 20.8328C124.43 20.8328 125.175 20.6453 125.847 20.2703C125.993 20.1869 126.115 20.1453 126.214 20.1453C126.422 20.1453 126.526 20.2416 126.526 20.4343C126.526 20.6218 126.414 20.8015 126.19 20.9734C125.44 21.5463 124.43 21.8328 123.159 21.8328C122.821 21.8328 122.519 21.8067 122.253 21.7546L121.901 22.2312C121.292 23.0385 120.55 23.7885 119.675 24.4812C118.805 25.1687 117.917 25.713 117.011 26.114C116.11 26.5098 115.308 26.7078 114.604 26.7078C114.151 26.7078 113.706 26.5098 113.269 26.114C112.836 25.7182 112.487 25.2156 112.222 24.6062C111.425 25.2625 110.618 25.7911 109.8 26.1921C108.982 26.588 108.266 26.7859 107.651 26.7859C106.792 26.7859 106.086 26.4135 105.534 25.6687C104.982 24.9239 104.706 23.95 104.706 22.7468C104.706 22.2364 104.813 21.5463 105.026 20.6765C105.245 19.8067 105.5 19.1322 105.792 18.6531C105.912 18.4604 106.024 18.3302 106.128 18.2625C106.232 18.1947 106.383 18.1609 106.581 18.1609ZM129.612 24.5281C130.591 24.5281 131.409 23.7781 132.065 22.2781C132.368 21.5906 132.519 21.0333 132.519 20.6062C132.519 20.1791 132.446 19.8848 132.3 19.7234C132.159 19.5619 131.878 19.4812 131.456 19.4812C131.039 19.4812 130.586 19.6765 130.097 20.0671C129.612 20.4526 129.222 20.9395 128.925 21.5281C128.628 22.1166 128.479 22.6479 128.479 23.1218C128.479 23.5906 128.584 23.9421 128.792 24.1765C129 24.4109 129.274 24.5281 129.612 24.5281ZM133.675 17.9109L137.253 18.075C137.388 18.075 137.49 18.1166 137.558 18.2C137.625 18.2781 137.659 18.3666 137.659 18.4656C137.659 18.8458 137.5 19.4526 137.183 20.2859C136.87 21.114 136.555 21.9369 136.237 22.7546C135.925 23.5671 135.769 24.1062 135.769 24.3718C135.769 24.6322 135.808 24.7989 135.886 24.8718C135.969 24.9447 136.125 24.9812 136.354 24.9812C136.584 24.9812 137 24.8718 137.604 24.6531C138.214 24.4291 138.625 24.2598 138.839 24.1453C139.058 24.0307 139.224 23.9734 139.339 23.9734C139.542 23.9734 139.644 24.0645 139.644 24.2468C139.644 24.6322 138.862 25.1375 137.3 25.7625C136.774 25.976 136.138 26.1531 135.394 26.2937C134.654 26.4395 133.901 26.5125 133.136 26.5125C131.86 26.5125 131.091 26.1062 130.831 25.2937C130.019 26.1062 128.925 26.5125 127.55 26.5125C126.607 26.5125 125.81 26.2859 125.159 25.8328C124.451 25.338 124.097 24.5593 124.097 23.4968C124.097 22.377 124.427 21.3458 125.089 20.4031C125.813 19.3562 126.782 18.6348 127.995 18.239C128.667 18.0203 129.388 17.9109 130.159 17.9109C131.341 17.9109 132.261 18.2026 132.917 18.7859C132.922 18.7546 132.925 18.7052 132.925 18.6375L132.917 18.3015C132.917 18.0411 133.17 17.9109 133.675 17.9109ZM154.026 23.9734C154.219 23.9734 154.315 24.0619 154.315 24.239C154.315 24.588 153.649 25.0411 152.315 25.5984C151.482 25.9473 150.565 26.2286 149.565 26.4421C149.44 26.7911 149.328 27.0984 149.229 27.364C149.131 27.6348 148.948 27.9369 148.683 28.2703C148.422 28.6036 148.112 28.8822 147.753 29.1062C147.399 29.3302 147.016 29.5177 146.604 29.6687C146.198 29.825 145.74 29.9447 145.229 30.0281C144.308 30.1843 143.227 30.2625 141.987 30.2625C140.753 30.2625 139.802 30.1244 139.136 29.8484C138.469 29.5723 138.136 29.1739 138.136 28.6531C138.136 28.351 138.266 28.0776 138.526 27.8328C138.787 27.588 139.125 27.3822 139.542 27.2156C139.964 27.0489 140.5 26.8979 141.151 26.7625C142.261 26.5385 143.654 26.3536 145.331 26.2078C145.472 25.7442 145.573 25.3562 145.636 25.0437C144.12 25.6062 142.729 25.8875 141.464 25.8875C139.771 25.8875 138.925 25.3276 138.925 24.2078C138.925 23.4213 139.159 22.45 139.628 21.2937C140.102 20.1322 140.339 19.3171 140.339 18.8484L140.331 18.5515C140.331 18.2911 140.584 18.1609 141.089 18.1609L142.909 18.1921L144.558 18.075C144.693 18.075 144.795 18.1166 144.862 18.2C144.93 18.2781 144.964 18.4187 144.964 18.6218C144.964 18.8197 144.886 19.1687 144.729 19.6687C144.578 20.1635 144.412 20.627 144.229 21.0593C143.735 22.2208 143.487 23.002 143.487 23.4031C143.487 23.6322 143.571 23.8067 143.737 23.9265C143.904 24.0463 144.123 24.1062 144.394 24.1062C144.966 24.1062 145.5 23.9473 145.995 23.6296C146.552 22.1244 147.065 20.45 147.534 18.6062C147.581 18.4135 147.719 18.3171 147.948 18.3171C148.703 18.3171 149.513 18.2781 150.378 18.2C151.243 18.1166 151.737 18.075 151.862 18.075C151.993 18.075 152.094 18.1062 152.167 18.1687C152.24 18.2312 152.276 18.2911 152.276 18.3484C152.276 18.5723 151.498 20.9187 149.94 25.3875C150.711 25.2052 151.427 24.989 152.089 24.739C152.756 24.4838 153.209 24.2937 153.448 24.1687C153.693 24.0385 153.886 23.9734 154.026 23.9734ZM144.659 28.1765C144.81 27.7963 144.94 27.4369 145.05 27.0984C142.706 27.3953 141.534 27.9369 141.534 28.7234C141.534 28.9265 141.638 29.1166 141.847 29.2937C142.06 29.476 142.274 29.5671 142.487 29.5671C142.961 29.5671 143.404 29.4447 143.815 29.2C144.227 28.9604 144.508 28.6192 144.659 28.1765Z" fill="black"/>
<path d="M65.4883 47.2546L62.7607 47.323C62.3096 47.323 62.084 47.1681 62.084 46.8582C62.084 46.7169 62.1432 46.5938 62.2617 46.489C62.3848 46.3842 62.5443 46.2657 62.7402 46.1335C62.9362 45.9968 63.1139 45.8191 63.2734 45.6003C63.4329 45.377 63.6084 45.0033 63.7998 44.4792C63.9958 43.9506 64.1553 43.4356 64.2783 42.9343C64.6702 41.3438 64.9505 40.3093 65.1191 39.8308C65.2923 39.3477 65.4222 38.9968 65.5088 38.7781C65.5999 38.5548 65.6979 38.3497 65.8027 38.1628C65.9121 37.976 66.0169 37.8119 66.1172 37.6707C66.2174 37.5294 66.3359 37.4041 66.4727 37.2947C66.6094 37.1807 66.7393 37.0873 66.8623 37.0144C66.9899 36.9369 67.1449 36.8708 67.3271 36.8162C67.5094 36.7569 67.6849 36.7113 67.8535 36.6794C68.0221 36.6475 68.2318 36.6225 68.4824 36.6042C68.8607 36.5769 69.3643 36.5632 69.9932 36.5632C70.6221 36.5632 71.0892 36.5929 71.3945 36.6521C71.6999 36.7113 71.8525 36.8367 71.8525 37.0281C71.8525 37.183 71.6771 37.3676 71.3262 37.5818C70.9342 37.8233 70.5879 38.2153 70.2871 38.7576C69.9635 39.35 69.7106 39.906 69.5283 40.4255C69.346 40.9405 69.2025 41.3552 69.0977 41.6697C68.9928 41.9841 68.8652 42.3715 68.7148 42.8318C68.5645 43.2921 68.4368 43.6749 68.332 43.9802C67.9036 45.2061 67.318 45.9809 66.5752 46.3044C67.7236 46.2452 68.6738 46.0424 69.4258 45.696C69.8359 45.5092 70.1868 45.3337 70.4785 45.1697C70.7747 45.0056 71.1051 44.7618 71.4697 44.4382C71.9482 44.0098 72.3743 43.602 72.748 43.2146C73.1217 42.8227 73.3245 42.6108 73.3564 42.5789C73.4749 42.4558 73.6185 42.3943 73.7871 42.3943C73.9557 42.3943 74.0924 42.4353 74.1973 42.5173C74.3021 42.5994 74.3545 42.7065 74.3545 42.8386C74.3545 43.3627 74.1859 44.1671 73.8486 45.2517C73.7301 45.6254 73.6117 45.9307 73.4932 46.1677C73.3747 46.4047 73.222 46.6166 73.0352 46.8035C72.6797 47.1589 72.1077 47.3367 71.3193 47.3367L65.4883 47.2546ZM76.5557 46.7419C75.6989 46.227 75.2705 45.4454 75.2705 44.3972C75.2705 43.8503 75.3822 43.3376 75.6055 42.8591C75.8333 42.3761 76.1432 41.9591 76.5352 41.6082C76.9316 41.2572 77.3919 40.9565 77.916 40.7058C78.9642 40.2 80.165 39.947 81.5186 39.947C84.18 39.947 85.6178 40.7901 85.832 42.4763C86.151 42.5811 86.4792 42.6335 86.8164 42.6335C87.1582 42.6335 87.443 42.6085 87.6709 42.5583C87.8988 42.5082 88.113 42.433 88.3135 42.3328C88.5186 42.2325 88.6644 42.1824 88.751 42.1824C88.9242 42.1824 89.0107 42.2667 89.0107 42.4353C89.0107 42.6039 88.8763 42.7794 88.6074 42.9617C88.1016 43.308 87.4316 43.4812 86.5977 43.4812C86.2832 43.4812 86.028 43.4653 85.832 43.4333C85.6862 44.5818 85.0938 45.5365 84.0547 46.2976C83.5579 46.6622 82.9473 46.9493 82.2227 47.1589C81.5026 47.3686 80.7552 47.4734 79.9805 47.4734C79.2103 47.4734 78.5495 47.4119 77.998 47.2888C77.4466 47.1703 76.9658 46.988 76.5557 46.7419ZM79.0371 44.9988C79.0371 45.8419 79.3447 46.2634 79.96 46.2634C80.3519 46.2634 80.7165 46.0492 81.0537 45.6208C81.3955 45.1925 81.6598 44.6615 81.8467 44.0281C82.0381 43.3946 82.1338 42.7498 82.1338 42.0935C82.1338 41.4327 81.9036 41.1023 81.4434 41.1023C81.0423 41.1023 80.6527 41.2914 80.2744 41.6697C79.9007 42.0479 79.5999 42.5401 79.3721 43.1462C79.1488 43.7478 79.0371 44.3653 79.0371 44.9988ZM86.707 49.5242C86.707 49.2462 86.9258 48.9773 87.3633 48.7175C87.8053 48.4578 88.375 48.2322 89.0723 48.0408C90.3346 47.6944 91.6494 47.4278 93.0166 47.241C93.1761 46.7944 93.3242 46.3682 93.4609 45.9626C92.9733 46.3227 92.4264 46.6052 91.8203 46.8103C91.2142 47.0154 90.665 47.1179 90.1729 47.1179C89.6807 47.1179 89.266 47.0769 88.9287 46.9949C88.5915 46.9083 88.2793 46.7738 87.9922 46.5916C87.377 46.1996 87.0693 45.5548 87.0693 44.657C87.0693 43.7546 87.3109 42.9434 87.7939 42.2234C88.277 41.5033 88.931 40.9451 89.7559 40.5486C90.5853 40.1475 91.5241 39.947 92.5723 39.947C93.6204 39.947 94.4316 40.1749 95.0059 40.6306C95.4206 40.503 95.9014 40.3914 96.4482 40.2957C96.9997 40.1954 97.4303 40.1453 97.7402 40.1453C98.0547 40.1453 98.319 40.2205 98.5332 40.3708C98.752 40.5212 98.8613 40.6944 98.8613 40.8904C98.8613 41.0818 98.793 41.3735 98.6562 41.7654C98.5241 42.1573 98.2939 42.8113 97.9658 43.7273C97.6377 44.6433 97.3255 45.5639 97.0293 46.489C97.9499 46.2384 98.9297 45.8669 99.9688 45.3748C100.142 45.2927 100.276 45.2517 100.372 45.2517C100.573 45.2517 100.673 45.3315 100.673 45.491C100.673 45.614 100.591 45.7348 100.427 45.8533C99.6748 46.4184 98.4466 46.9379 96.7422 47.4119L96.5576 48.0203C96.43 48.4486 96.1976 48.8269 95.8604 49.155C95.5231 49.4877 95.138 49.752 94.7051 49.948C94.2721 50.144 93.7754 50.3035 93.2148 50.4265C92.2396 50.6453 91.139 50.7546 89.9131 50.7546C87.7757 50.7546 86.707 50.3445 86.707 49.5242ZM93.1943 45.115C93.5498 44.8279 93.8597 44.3813 94.124 43.7751C94.3929 43.169 94.5273 42.6791 94.5273 42.3054C94.5273 41.9317 94.4635 41.6742 94.3359 41.533C94.2129 41.3917 93.9668 41.321 93.5977 41.321C93.2331 41.321 92.8298 41.4806 92.3877 41.7996C91.9502 42.114 91.5924 42.5173 91.3145 43.0095C91.041 43.5017 90.9043 43.9529 90.9043 44.363C90.9043 44.7732 90.9932 45.0717 91.1709 45.2585C91.3532 45.4408 91.5537 45.532 91.7725 45.532C91.9958 45.532 92.1621 45.5251 92.2715 45.5115C92.3854 45.4978 92.5312 45.4591 92.709 45.3953C92.8867 45.3269 93.0485 45.2335 93.1943 45.115ZM92.415 48.9294L92.7363 48.0203C90.6992 48.3438 89.6807 48.8064 89.6807 49.408C89.6807 49.5857 89.765 49.727 89.9336 49.8318C90.1068 49.9412 90.3232 49.9958 90.583 49.9958C91.5537 49.9958 92.1644 49.6404 92.415 48.9294ZM106.408 37.5613C106.408 38.0489 106.137 38.475 105.595 38.8396C105.057 39.1996 104.487 39.3796 103.886 39.3796C103.289 39.3796 102.824 39.2589 102.491 39.0173C102.159 38.7712 101.992 38.4727 101.992 38.1218C101.992 37.7709 102.12 37.4519 102.375 37.1648C102.63 36.8777 102.961 36.6521 103.366 36.488C103.776 36.324 104.221 36.2419 104.699 36.2419C105.178 36.2419 105.581 36.3695 105.909 36.6248C106.242 36.8754 106.408 37.1876 106.408 37.5613ZM104.487 46.0447C104.797 46.0447 105.216 45.9718 105.745 45.8259C106.278 45.6755 106.666 45.5434 106.907 45.4294C107.149 45.311 107.317 45.2517 107.413 45.2517C107.604 45.2517 107.7 45.3474 107.7 45.5388C107.7 45.6254 107.63 45.7234 107.488 45.8328C107.023 46.1791 106.187 46.5391 104.979 46.9128C103.772 47.2865 102.694 47.4734 101.746 47.4734C101.158 47.4734 100.666 47.38 100.27 47.1931C99.873 47.0063 99.6748 46.7214 99.6748 46.3386C99.6748 46.1062 99.873 45.5365 100.27 44.6296C101.017 42.9115 101.391 41.6173 101.391 40.7468L101.384 40.4871C101.384 40.2592 101.605 40.1453 102.047 40.1453L105.424 40.0701C105.542 40.0701 105.631 40.1065 105.69 40.1794C105.75 40.2478 105.779 40.3253 105.779 40.4119C105.779 40.7263 105.636 41.2458 105.349 41.9705C105.062 42.6905 104.774 43.3992 104.487 44.0964C104.2 44.7937 104.057 45.2927 104.057 45.5935C104.057 45.8943 104.2 46.0447 104.487 46.0447ZM111.344 47.4666C111.23 47.4711 111.061 47.4734 110.838 47.4734C109.79 47.4734 108.801 47.3754 107.871 47.1794C106.946 46.9835 106.399 46.7556 106.23 46.4958C106.176 46.4138 106.148 46.3113 106.148 46.1882C106.148 46.0652 106.294 45.8692 106.586 45.6003C106.878 45.3269 107.078 45.1902 107.188 45.1902C107.297 45.1902 107.409 45.2312 107.522 45.3132C107.641 45.3907 107.771 45.4864 107.912 45.6003C108.053 45.7143 108.211 45.8282 108.384 45.9421C108.799 46.2156 109.298 46.3523 109.881 46.3523C110.113 46.3523 110.3 46.2931 110.441 46.1746C110.587 46.0561 110.66 45.908 110.66 45.7302C110.66 45.5479 110.599 45.3907 110.476 45.2585C110.357 45.1264 110.2 45.0125 110.004 44.9167C109.812 44.8165 109.601 44.7185 109.368 44.6228C109.136 44.5225 108.901 44.4154 108.664 44.3015C108.432 44.183 108.217 44.0554 108.021 43.9187C107.589 43.6134 107.372 43.2351 107.372 42.7839C107.372 42.3282 107.509 41.934 107.782 41.6013C108.06 41.2686 108.409 41.002 108.828 40.8015C109.247 40.601 109.721 40.4324 110.25 40.2957C111.18 40.0632 112.057 39.947 112.882 39.947C113.711 39.947 114.481 39.9903 115.192 40.0769C115.908 40.1589 116.4 40.282 116.669 40.446C116.742 40.4871 116.778 40.5964 116.778 40.7742C116.778 40.9473 116.717 41.198 116.594 41.5261C116.471 41.8497 116.313 42.1505 116.122 42.4285C115.935 42.7019 115.767 42.8386 115.616 42.8386C115.557 42.8386 115.507 42.8136 115.466 42.7634C115.033 42.2439 114.611 41.8451 114.201 41.5671C113.796 41.2846 113.354 41.1433 112.875 41.1433C112.51 41.1433 112.248 41.2185 112.089 41.3689C111.934 41.5147 111.856 41.6674 111.856 41.8269C111.856 41.9864 111.943 42.1391 112.116 42.2849C112.294 42.4307 112.513 42.5629 112.772 42.6814C113.037 42.7999 113.322 42.9389 113.627 43.0984C113.937 43.2533 114.222 43.4128 114.481 43.5769C114.746 43.7364 114.965 43.9392 115.138 44.1853C115.315 44.4268 115.404 44.7322 115.404 45.1013C115.404 45.4705 115.27 45.8305 115.001 46.1814C116.131 45.9535 117.015 45.6733 117.653 45.3406C117.763 45.2813 117.856 45.2517 117.934 45.2517C118.107 45.2517 118.193 45.3383 118.193 45.5115C118.193 45.6573 118.104 45.7917 117.927 45.9148C117.749 46.0333 117.455 46.1791 117.045 46.3523C116.635 46.5209 116.147 46.6918 115.582 46.865C114.265 47.266 112.852 47.4666 111.344 47.4666ZM123.662 40.241L125.46 40.0085C125.797 40.0085 125.966 40.1407 125.966 40.405C125.966 40.6694 125.806 40.8357 125.487 40.9041C125.168 40.9679 124.448 41.0544 123.327 41.1638C123.172 41.5694 122.94 42.1322 122.63 42.8523C121.996 44.3289 121.68 45.2153 121.68 45.5115C121.68 45.835 121.88 45.9968 122.281 45.9968C123.576 45.9968 124.738 45.7804 125.768 45.3474C125.918 45.2836 126.036 45.2517 126.123 45.2517C126.292 45.2517 126.376 45.3269 126.376 45.4773C126.376 45.6277 126.267 45.7758 126.048 45.9216C125.378 46.3637 124.368 46.7328 123.02 47.0291C121.671 47.3253 120.426 47.4734 119.287 47.4734C118.64 47.4734 118.146 47.3731 117.804 47.1726C117.462 46.9675 117.291 46.6873 117.291 46.3318C117.291 45.9718 117.528 45.2996 118.002 44.3152C118.535 43.2123 118.918 42.2439 119.15 41.4099C118.868 41.4236 118.672 41.4304 118.562 41.4304C118.294 41.4304 118.159 41.321 118.159 41.1023C118.159 40.9428 118.202 40.8357 118.289 40.781C118.376 40.7263 118.465 40.6876 118.556 40.6648C118.651 40.642 118.731 40.6283 118.795 40.6238C118.863 40.6147 118.957 40.6056 119.075 40.5964C119.194 40.5873 119.28 40.5805 119.335 40.5759C119.394 40.2296 119.424 39.9037 119.424 39.5984L119.417 39.3386C119.417 39.1335 119.677 38.9945 120.196 38.9216C120.369 38.8988 120.914 38.7849 121.83 38.5798C122.746 38.3748 123.307 38.2722 123.512 38.2722C123.84 38.2722 124.004 38.3861 124.004 38.614C124.004 39.0059 123.89 39.5483 123.662 40.241ZM132.111 37.5613C132.111 38.0489 131.84 38.475 131.298 38.8396C130.76 39.1996 130.19 39.3796 129.589 39.3796C128.992 39.3796 128.527 39.2589 128.194 39.0173C127.862 38.7712 127.695 38.4727 127.695 38.1218C127.695 37.7709 127.823 37.4519 128.078 37.1648C128.333 36.8777 128.664 36.6521 129.069 36.488C129.479 36.324 129.924 36.2419 130.402 36.2419C130.881 36.2419 131.284 36.3695 131.612 36.6248C131.945 36.8754 132.111 37.1876 132.111 37.5613ZM130.19 46.0447C130.5 46.0447 130.92 45.9718 131.448 45.8259C131.981 45.6755 132.369 45.5434 132.61 45.4294C132.852 45.311 133.021 45.2517 133.116 45.2517C133.308 45.2517 133.403 45.3474 133.403 45.5388C133.403 45.6254 133.333 45.7234 133.191 45.8328C132.727 46.1791 131.89 46.5391 130.683 46.9128C129.475 47.2865 128.397 47.4734 127.449 47.4734C126.861 47.4734 126.369 47.38 125.973 47.1931C125.576 47.0063 125.378 46.7214 125.378 46.3386C125.378 46.1062 125.576 45.5365 125.973 44.6296C126.72 42.9115 127.094 41.6173 127.094 40.7468L127.087 40.4871C127.087 40.2592 127.308 40.1453 127.75 40.1453L131.127 40.0701C131.245 40.0701 131.334 40.1065 131.394 40.1794C131.453 40.2478 131.482 40.3253 131.482 40.4119C131.482 40.7263 131.339 41.2458 131.052 41.9705C130.765 42.6905 130.478 43.3992 130.19 44.0964C129.903 44.7937 129.76 45.2927 129.76 45.5935C129.76 45.8943 129.903 46.0447 130.19 46.0447ZM136.814 42.7361C136.605 43.2966 136.5 43.8116 136.5 44.281C136.5 44.7504 136.548 45.1013 136.644 45.3337C136.739 45.5616 136.883 45.7371 137.074 45.8601C137.726 46.2703 139.016 46.2931 140.943 45.9285C141.859 45.7553 142.525 45.6003 142.939 45.4636C143.359 45.3223 143.605 45.2517 143.678 45.2517C143.837 45.2517 143.917 45.3292 143.917 45.4841C143.917 45.6391 143.796 45.7963 143.555 45.9558C142.917 46.3705 142.017 46.7283 140.854 47.0291C139.692 47.3253 138.394 47.4734 136.958 47.4734C135.527 47.4734 134.44 47.2182 133.697 46.7078C132.954 46.1973 132.583 45.491 132.583 44.5886C132.583 44.0281 132.699 43.4994 132.932 43.0027C133.169 42.5059 133.49 42.0753 133.896 41.7107C134.306 41.3416 134.782 41.0225 135.324 40.7537C136.409 40.2159 137.639 39.947 139.016 39.947C140.62 39.947 141.745 40.1316 142.393 40.5007C142.465 40.56 142.502 40.6716 142.502 40.8357C142.502 40.9952 142.431 41.2618 142.29 41.6355C142.149 42.0092 141.962 42.3556 141.729 42.6746C141.502 42.9936 141.292 43.1531 141.101 43.1531C140.909 43.1531 140.757 43.0505 140.643 42.8455C140.529 42.6404 140.433 42.474 140.355 42.3464C140.278 42.2143 140.171 42.0593 140.034 41.8816C139.897 41.7039 139.768 41.5694 139.645 41.4783C139.526 41.3871 139.38 41.3074 139.207 41.239C139.034 41.1707 138.822 41.1365 138.571 41.1365C138.325 41.1365 138.077 41.2117 137.826 41.3621C137.58 41.5079 137.377 41.6993 137.218 41.9363C137.058 42.1687 136.924 42.4353 136.814 42.7361Z" fill="black"/>
</svg>
